<mxfile host="app.diagrams.net" modified="2021-05-02T21:16:58.533Z" agent="5.0 (Windows NT 10.0; Win64; x64) AppleWebKit/537.36 (KHTML, like Gecko) Chrome/89.0.4389.128 Safari/537.36 OPR/75.0.3969.243" etag="N_LvpvG_jMvElNq22dj3" version="14.5.1" type="github">
  <diagram name="Page-1" id="0783ab3e-0a74-02c8-0abd-f7b4e66b4bec">
    <mxGraphModel dx="1297" dy="1064" grid="1" gridSize="10" guides="1" tooltips="1" connect="1" arrows="1" fold="1" page="1" pageScale="1" pageWidth="850" pageHeight="1100" background="#ffffff" math="0" shadow="0">
      <root>
        <mxCell id="0" />
        <mxCell id="1" parent="0" />
        <mxCell id="1c1d494c118603dd-1" value="Pool" style="swimlane;html=1;childLayout=stackLayout;startSize=20;rounded=0;shadow=0;comic=0;labelBackgroundColor=none;strokeWidth=1;fontFamily=Verdana;fontSize=12;align=center;" parent="1" vertex="1">
          <mxGeometry x="40" y="20" width="1030" height="990" as="geometry" />
        </mxCell>
        <mxCell id="1c1d494c118603dd-2" value="Admin" style="swimlane;html=1;startSize=20;" parent="1c1d494c118603dd-1" vertex="1">
          <mxGeometry y="20" width="250" height="970" as="geometry" />
        </mxCell>
        <mxCell id="1c1d494c118603dd-3" value="Human Sources" style="swimlane;html=1;startSize=20;" parent="1c1d494c118603dd-1" vertex="1">
          <mxGeometry x="250" y="20" width="380" height="970" as="geometry" />
        </mxCell>
        <mxCell id="Nv8JQg9YMiIBe-wqVKoI-14" value="Delete candidate" style="rounded=1;whiteSpace=wrap;html=1;shadow=0;comic=0;labelBackgroundColor=none;strokeWidth=1;fontFamily=Verdana;fontSize=12;align=center;arcSize=50;" vertex="1" parent="1c1d494c118603dd-3">
          <mxGeometry x="85" y="875" width="100" height="30" as="geometry" />
        </mxCell>
        <mxCell id="Nv8JQg9YMiIBe-wqVKoI-15" value="Give offer to candidate" style="rounded=1;whiteSpace=wrap;html=1;shadow=0;comic=0;labelBackgroundColor=none;strokeWidth=1;fontFamily=Verdana;fontSize=12;align=center;arcSize=50;" vertex="1" parent="1c1d494c118603dd-3">
          <mxGeometry x="200" y="670" width="100" height="30" as="geometry" />
        </mxCell>
        <mxCell id="Nv8JQg9YMiIBe-wqVKoI-16" value="Arrange meeting between candidate and company" style="rounded=1;whiteSpace=wrap;html=1;shadow=0;comic=0;labelBackgroundColor=none;strokeWidth=1;fontFamily=Verdana;fontSize=12;align=center;arcSize=47;" vertex="1" parent="1c1d494c118603dd-3">
          <mxGeometry x="290" y="465" width="100" height="80" as="geometry" />
        </mxCell>
        <mxCell id="1c1d494c118603dd-4" value="Applicant Company" style="swimlane;html=1;startSize=20;" parent="1c1d494c118603dd-1" vertex="1">
          <mxGeometry x="630" y="20" width="400" height="970" as="geometry" />
        </mxCell>
        <mxCell id="feAVlpUrrlh7gay0loe1-109" value="&lt;span style=&quot;font-size: 24px&quot;&gt;[Fail]&lt;/span&gt;" style="edgeStyle=orthogonalEdgeStyle;rounded=0;orthogonalLoop=1;jettySize=auto;html=1;exitX=1;exitY=0.5;exitDx=0;exitDy=0;entryX=1;entryY=0.5;entryDx=0;entryDy=0;" parent="1c1d494c118603dd-4" edge="1">
          <mxGeometry x="-0.0076" relative="1" as="geometry">
            <mxPoint x="157.5" y="515" as="targetPoint" />
            <Array as="points">
              <mxPoint x="187.5" y="592" />
              <mxPoint x="187.5" y="515" />
            </Array>
            <mxPoint as="offset" />
          </mxGeometry>
        </mxCell>
        <mxCell id="Nv8JQg9YMiIBe-wqVKoI-17" value="Rate candidate" style="rounded=1;whiteSpace=wrap;html=1;shadow=0;comic=0;labelBackgroundColor=none;strokeWidth=1;fontFamily=Verdana;fontSize=12;align=center;arcSize=50;" vertex="1" parent="1c1d494c118603dd-4">
          <mxGeometry x="105" y="330" width="100" height="50" as="geometry" />
        </mxCell>
        <mxCell id="feAVlpUrrlh7gay0loe1-146" value="Candidate" style="swimlane;html=1;startSize=20;" parent="1" vertex="1">
          <mxGeometry x="1070" y="40" width="510" height="970" as="geometry" />
        </mxCell>
        <mxCell id="feAVlpUrrlh7gay0loe1-147" value="" style="ellipse;whiteSpace=wrap;html=1;rounded=0;shadow=0;comic=0;labelBackgroundColor=none;strokeWidth=1;fillColor=#000000;fontFamily=Verdana;fontSize=12;align=center;" parent="feAVlpUrrlh7gay0loe1-146" vertex="1">
          <mxGeometry x="230" y="50" width="40" height="40" as="geometry" />
        </mxCell>
        <mxCell id="feAVlpUrrlh7gay0loe1-149" style="edgeStyle=orthogonalEdgeStyle;rounded=0;html=1;labelBackgroundColor=none;startArrow=none;startFill=0;startSize=5;endArrow=classicThin;endFill=1;endSize=5;jettySize=auto;orthogonalLoop=1;strokeWidth=1;fontFamily=Verdana;fontSize=12;entryX=0.573;entryY=0.371;entryDx=0;entryDy=0;entryPerimeter=0;" parent="feAVlpUrrlh7gay0loe1-146" source="feAVlpUrrlh7gay0loe1-147" target="Nv8JQg9YMiIBe-wqVKoI-11" edge="1">
          <mxGeometry relative="1" as="geometry">
            <mxPoint x="245" y="120" as="targetPoint" />
            <Array as="points">
              <mxPoint x="247" y="110" />
            </Array>
          </mxGeometry>
        </mxCell>
        <mxCell id="feAVlpUrrlh7gay0loe1-155" value="&lt;span style=&quot;font-size: 24px&quot;&gt;[Fail]&lt;/span&gt;" style="edgeStyle=orthogonalEdgeStyle;rounded=0;orthogonalLoop=1;jettySize=auto;html=1;exitX=1;exitY=0.5;exitDx=0;exitDy=0;entryX=1;entryY=0.5;entryDx=0;entryDy=0;" parent="feAVlpUrrlh7gay0loe1-146" edge="1">
          <mxGeometry x="-0.0076" relative="1" as="geometry">
            <mxPoint x="157.5" y="515" as="targetPoint" />
            <Array as="points">
              <mxPoint x="187.5" y="592" />
              <mxPoint x="187.5" y="515" />
            </Array>
            <mxPoint as="offset" />
          </mxGeometry>
        </mxCell>
        <mxCell id="Nv8JQg9YMiIBe-wqVKoI-3" value="Login" style="rounded=1;whiteSpace=wrap;html=1;shadow=0;comic=0;labelBackgroundColor=none;strokeWidth=1;fontFamily=Verdana;fontSize=12;align=center;arcSize=50;" vertex="1" parent="feAVlpUrrlh7gay0loe1-146">
          <mxGeometry x="270" y="182" width="100" height="30" as="geometry" />
        </mxCell>
        <mxCell id="Nv8JQg9YMiIBe-wqVKoI-4" value="" style="rhombus;whiteSpace=wrap;html=1;color=black;fillColor=#bac8d3;strokeColor=#23445d;" vertex="1" parent="feAVlpUrrlh7gay0loe1-146">
          <mxGeometry x="287.5" y="245" width="65" height="64" as="geometry" />
        </mxCell>
        <mxCell id="Nv8JQg9YMiIBe-wqVKoI-5" value="&lt;span style=&quot;font-size: 24px&quot;&gt;[Fail]&lt;/span&gt;" style="edgeStyle=orthogonalEdgeStyle;rounded=0;orthogonalLoop=1;jettySize=auto;html=1;exitX=1;exitY=0.5;exitDx=0;exitDy=0;entryX=1;entryY=0.5;entryDx=0;entryDy=0;" edge="1" parent="feAVlpUrrlh7gay0loe1-146" source="Nv8JQg9YMiIBe-wqVKoI-4" target="Nv8JQg9YMiIBe-wqVKoI-3">
          <mxGeometry x="-0.0076" relative="1" as="geometry">
            <mxPoint x="-600" y="85" as="targetPoint" />
            <Array as="points">
              <mxPoint x="400" y="277" />
              <mxPoint x="400" y="200" />
            </Array>
            <mxPoint as="offset" />
          </mxGeometry>
        </mxCell>
        <mxCell id="Nv8JQg9YMiIBe-wqVKoI-6" value="" style="line;strokeWidth=11;fillColor=none;align=left;verticalAlign=middle;spacingTop=-1;spacingLeft=3;spacingRight=3;rotatable=0;labelPosition=right;points=[];portConstraint=eastwest;fontStyle=1" vertex="1" parent="feAVlpUrrlh7gay0loe1-146">
          <mxGeometry x="90" y="400" width="370" height="20" as="geometry" />
        </mxCell>
        <mxCell id="Nv8JQg9YMiIBe-wqVKoI-7" style="edgeStyle=orthogonalEdgeStyle;rounded=0;orthogonalLoop=1;jettySize=auto;html=1;exitX=0.5;exitY=1;exitDx=0;exitDy=0;" edge="1" parent="feAVlpUrrlh7gay0loe1-146" source="Nv8JQg9YMiIBe-wqVKoI-3">
          <mxGeometry relative="1" as="geometry">
            <mxPoint x="320" y="245" as="targetPoint" />
          </mxGeometry>
        </mxCell>
        <mxCell id="Nv8JQg9YMiIBe-wqVKoI-8" value="&lt;font style=&quot;font-size: 20px&quot;&gt;[Succeeded]&lt;/font&gt;" style="edgeStyle=orthogonalEdgeStyle;rounded=0;orthogonalLoop=1;jettySize=auto;html=1;exitX=0.5;exitY=1;exitDx=0;exitDy=0;" edge="1" parent="feAVlpUrrlh7gay0loe1-146" source="Nv8JQg9YMiIBe-wqVKoI-4">
          <mxGeometry relative="1" as="geometry">
            <mxPoint x="310" y="408" as="targetPoint" />
            <mxPoint x="-360" y="288" as="sourcePoint" />
            <Array as="points">
              <mxPoint x="320" y="408" />
            </Array>
          </mxGeometry>
        </mxCell>
        <mxCell id="Nv8JQg9YMiIBe-wqVKoI-22" style="edgeStyle=orthogonalEdgeStyle;rounded=0;orthogonalLoop=1;jettySize=auto;html=1;exitX=1;exitY=0.5;exitDx=0;exitDy=0;entryX=0;entryY=0.5;entryDx=0;entryDy=0;" edge="1" parent="feAVlpUrrlh7gay0loe1-146" source="Nv8JQg9YMiIBe-wqVKoI-10" target="Nv8JQg9YMiIBe-wqVKoI-19">
          <mxGeometry relative="1" as="geometry">
            <Array as="points">
              <mxPoint x="113" y="196" />
              <mxPoint x="113" y="247" />
            </Array>
          </mxGeometry>
        </mxCell>
        <mxCell id="Nv8JQg9YMiIBe-wqVKoI-10" value="Sign up" style="rounded=1;whiteSpace=wrap;html=1;shadow=0;comic=0;labelBackgroundColor=none;strokeWidth=1;fontFamily=Verdana;fontSize=12;align=center;arcSize=50;" vertex="1" parent="feAVlpUrrlh7gay0loe1-146">
          <mxGeometry x="70" y="179" width="85" height="33" as="geometry" />
        </mxCell>
        <mxCell id="Nv8JQg9YMiIBe-wqVKoI-11" value="" style="line;strokeWidth=11;fillColor=none;align=left;verticalAlign=middle;spacingTop=-1;spacingLeft=3;spacingRight=3;rotatable=0;labelPosition=right;points=[];portConstraint=eastwest;fontStyle=1" vertex="1" parent="feAVlpUrrlh7gay0loe1-146">
          <mxGeometry x="180" y="120" width="117.5" height="20" as="geometry" />
        </mxCell>
        <mxCell id="Nv8JQg9YMiIBe-wqVKoI-12" value="" style="endArrow=classic;html=1;entryX=0.5;entryY=0;entryDx=0;entryDy=0;" edge="1" parent="feAVlpUrrlh7gay0loe1-146" target="Nv8JQg9YMiIBe-wqVKoI-10">
          <mxGeometry width="50" height="50" relative="1" as="geometry">
            <mxPoint x="210" y="135" as="sourcePoint" />
            <mxPoint x="130" y="135" as="targetPoint" />
            <Array as="points">
              <mxPoint x="210" y="135" />
              <mxPoint x="113" y="135" />
            </Array>
          </mxGeometry>
        </mxCell>
        <mxCell id="Nv8JQg9YMiIBe-wqVKoI-13" value="" style="endArrow=classic;html=1;entryX=0.5;entryY=0;entryDx=0;entryDy=0;" edge="1" parent="feAVlpUrrlh7gay0loe1-146" target="Nv8JQg9YMiIBe-wqVKoI-3">
          <mxGeometry width="50" height="50" relative="1" as="geometry">
            <mxPoint x="290" y="135" as="sourcePoint" />
            <mxPoint x="162.5" y="192" as="targetPoint" />
            <Array as="points">
              <mxPoint x="300" y="135" />
              <mxPoint x="320" y="135" />
            </Array>
          </mxGeometry>
        </mxCell>
        <mxCell id="Nv8JQg9YMiIBe-wqVKoI-23" style="edgeStyle=orthogonalEdgeStyle;rounded=0;orthogonalLoop=1;jettySize=auto;html=1;exitX=1;exitY=0.5;exitDx=0;exitDy=0;entryX=0;entryY=0.5;entryDx=0;entryDy=0;" edge="1" parent="feAVlpUrrlh7gay0loe1-146" source="Nv8JQg9YMiIBe-wqVKoI-19" target="Nv8JQg9YMiIBe-wqVKoI-3">
          <mxGeometry relative="1" as="geometry">
            <Array as="points">
              <mxPoint x="270" y="198" />
            </Array>
          </mxGeometry>
        </mxCell>
        <mxCell id="Nv8JQg9YMiIBe-wqVKoI-19" value="Give information" style="rounded=1;whiteSpace=wrap;html=1;shadow=0;comic=0;labelBackgroundColor=none;strokeWidth=1;fontFamily=Verdana;fontSize=12;align=center;arcSize=50;" vertex="1" parent="feAVlpUrrlh7gay0loe1-146">
          <mxGeometry x="170" y="230" width="80" height="33" as="geometry" />
        </mxCell>
        <mxCell id="Nv8JQg9YMiIBe-wqVKoI-71" style="edgeStyle=orthogonalEdgeStyle;rounded=0;orthogonalLoop=1;jettySize=auto;html=1;exitX=0.5;exitY=1;exitDx=0;exitDy=0;" edge="1" parent="feAVlpUrrlh7gay0loe1-146" source="Nv8JQg9YMiIBe-wqVKoI-26">
          <mxGeometry relative="1" as="geometry">
            <mxPoint x="140" y="890" as="targetPoint" />
            <Array as="points">
              <mxPoint x="130" y="890" />
              <mxPoint x="130" y="890" />
            </Array>
          </mxGeometry>
        </mxCell>
        <mxCell id="Nv8JQg9YMiIBe-wqVKoI-26" value="Set status to open to work." style="rounded=1;whiteSpace=wrap;html=1;shadow=0;comic=0;labelBackgroundColor=none;strokeWidth=1;fontFamily=Verdana;fontSize=12;align=center;arcSize=50;" vertex="1" parent="feAVlpUrrlh7gay0loe1-146">
          <mxGeometry x="90" y="830" width="100" height="30" as="geometry" />
        </mxCell>
        <mxCell id="Nv8JQg9YMiIBe-wqVKoI-74" style="edgeStyle=orthogonalEdgeStyle;rounded=0;orthogonalLoop=1;jettySize=auto;html=1;exitX=0.5;exitY=1;exitDx=0;exitDy=0;" edge="1" parent="feAVlpUrrlh7gay0loe1-146" source="Nv8JQg9YMiIBe-wqVKoI-25">
          <mxGeometry relative="1" as="geometry">
            <mxPoint x="200" y="890" as="targetPoint" />
            <Array as="points">
              <mxPoint x="370" y="740" />
              <mxPoint x="200" y="740" />
            </Array>
          </mxGeometry>
        </mxCell>
        <mxCell id="Nv8JQg9YMiIBe-wqVKoI-25" value="Rate the offer" style="rounded=1;whiteSpace=wrap;html=1;shadow=0;comic=0;labelBackgroundColor=none;strokeWidth=1;fontFamily=Verdana;fontSize=12;align=center;arcSize=50;" vertex="1" parent="feAVlpUrrlh7gay0loe1-146">
          <mxGeometry x="320" y="610" width="100" height="30" as="geometry" />
        </mxCell>
        <mxCell id="Nv8JQg9YMiIBe-wqVKoI-28" value="See ratings." style="rounded=1;whiteSpace=wrap;html=1;shadow=0;comic=0;labelBackgroundColor=none;strokeWidth=1;fontFamily=Verdana;fontSize=12;align=center;arcSize=50;" vertex="1" parent="feAVlpUrrlh7gay0loe1-146">
          <mxGeometry x="390" y="560" width="100" height="30" as="geometry" />
        </mxCell>
        <mxCell id="Nv8JQg9YMiIBe-wqVKoI-67" style="edgeStyle=orthogonalEdgeStyle;rounded=0;orthogonalLoop=1;jettySize=auto;html=1;entryX=0.5;entryY=0;entryDx=0;entryDy=0;" edge="1" parent="feAVlpUrrlh7gay0loe1-146" source="Nv8JQg9YMiIBe-wqVKoI-29" target="Nv8JQg9YMiIBe-wqVKoI-25">
          <mxGeometry relative="1" as="geometry" />
        </mxCell>
        <mxCell id="Nv8JQg9YMiIBe-wqVKoI-29" value="Apply to Advertisement" style="rounded=1;whiteSpace=wrap;html=1;shadow=0;comic=0;labelBackgroundColor=none;strokeWidth=1;fontFamily=Verdana;fontSize=12;align=center;arcSize=50;" vertex="1" parent="feAVlpUrrlh7gay0loe1-146">
          <mxGeometry x="30" y="490" width="100" height="30" as="geometry" />
        </mxCell>
        <mxCell id="Nv8JQg9YMiIBe-wqVKoI-53" style="edgeStyle=orthogonalEdgeStyle;rounded=0;orthogonalLoop=1;jettySize=auto;html=1;" edge="1" parent="feAVlpUrrlh7gay0loe1-146" target="Nv8JQg9YMiIBe-wqVKoI-60">
          <mxGeometry relative="1" as="geometry">
            <mxPoint x="-480" y="685" as="sourcePoint" />
          </mxGeometry>
        </mxCell>
        <mxCell id="Nv8JQg9YMiIBe-wqVKoI-54" value="&lt;font style=&quot;font-size: 18px&quot;&gt;[Accept]&lt;/font&gt;" style="edgeStyle=orthogonalEdgeStyle;rounded=0;orthogonalLoop=1;jettySize=auto;html=1;exitX=0.5;exitY=0;exitDx=0;exitDy=0;" edge="1" parent="feAVlpUrrlh7gay0loe1-146" source="Nv8JQg9YMiIBe-wqVKoI-60">
          <mxGeometry x="-0.3562" relative="1" as="geometry">
            <mxPoint x="68" y="520" as="targetPoint" />
            <Array as="points">
              <mxPoint x="68" y="520" />
              <mxPoint x="68" y="520" />
            </Array>
            <mxPoint as="offset" />
          </mxGeometry>
        </mxCell>
        <mxCell id="Nv8JQg9YMiIBe-wqVKoI-55" value="" style="endArrow=open;endFill=1;endSize=12;html=1;" edge="1" parent="feAVlpUrrlh7gay0loe1-146">
          <mxGeometry width="160" relative="1" as="geometry">
            <mxPoint x="260.5999999999999" y="743" as="sourcePoint" />
            <mxPoint x="260.5999999999999" y="743" as="targetPoint" />
          </mxGeometry>
        </mxCell>
        <mxCell id="Nv8JQg9YMiIBe-wqVKoI-60" value="" style="rhombus;whiteSpace=wrap;html=1;color=black;fillColor=#bac8d3;strokeColor=#23445d;" vertex="1" parent="feAVlpUrrlh7gay0loe1-146">
          <mxGeometry x="35" y="653" width="65" height="64" as="geometry" />
        </mxCell>
        <mxCell id="Nv8JQg9YMiIBe-wqVKoI-58" style="edgeStyle=orthogonalEdgeStyle;rounded=0;orthogonalLoop=1;jettySize=auto;html=1;entryX=1;entryY=0.5;entryDx=0;entryDy=0;" edge="1" parent="feAVlpUrrlh7gay0loe1-146" source="Nv8JQg9YMiIBe-wqVKoI-24" target="Nv8JQg9YMiIBe-wqVKoI-60">
          <mxGeometry relative="1" as="geometry">
            <mxPoint x="252.5" y="685" as="sourcePoint" />
          </mxGeometry>
        </mxCell>
        <mxCell id="Nv8JQg9YMiIBe-wqVKoI-61" value="&lt;font style=&quot;font-size: 18px&quot;&gt;[Decline]&lt;/font&gt;" style="edgeStyle=orthogonalEdgeStyle;rounded=0;orthogonalLoop=1;jettySize=auto;html=1;exitX=0.5;exitY=1;exitDx=0;exitDy=0;entryX=0.5;entryY=0;entryDx=0;entryDy=0;" edge="1" parent="feAVlpUrrlh7gay0loe1-146" source="Nv8JQg9YMiIBe-wqVKoI-60">
          <mxGeometry relative="1" as="geometry">
            <mxPoint x="135" y="830" as="targetPoint" />
          </mxGeometry>
        </mxCell>
        <mxCell id="Nv8JQg9YMiIBe-wqVKoI-62" value="" style="line;strokeWidth=11;fillColor=none;align=left;verticalAlign=middle;spacingTop=-1;spacingLeft=3;spacingRight=3;rotatable=0;labelPosition=right;points=[];portConstraint=eastwest;fontStyle=1" vertex="1" parent="feAVlpUrrlh7gay0loe1-146">
          <mxGeometry x="110" y="880" width="210" height="20" as="geometry" />
        </mxCell>
        <mxCell id="Nv8JQg9YMiIBe-wqVKoI-63" value="" style="ellipse;html=1;shape=endState;fillColor=#000000;strokeColor=#ff0000;" vertex="1" parent="feAVlpUrrlh7gay0loe1-146">
          <mxGeometry x="205" y="930" width="30" height="30" as="geometry" />
        </mxCell>
        <mxCell id="Nv8JQg9YMiIBe-wqVKoI-64" value="" style="endArrow=open;endFill=1;endSize=12;html=1;exitX=0.501;exitY=0.843;exitDx=0;exitDy=0;exitPerimeter=0;" edge="1" parent="feAVlpUrrlh7gay0loe1-146">
          <mxGeometry width="160" relative="1" as="geometry">
            <mxPoint x="219.4000000000001" y="890" as="sourcePoint" />
            <mxPoint x="219" y="930" as="targetPoint" />
          </mxGeometry>
        </mxCell>
        <mxCell id="Nv8JQg9YMiIBe-wqVKoI-24" value="Evaluate the offer" style="rounded=1;whiteSpace=wrap;html=1;shadow=0;comic=0;labelBackgroundColor=none;strokeWidth=1;fontFamily=Verdana;fontSize=12;align=center;arcSize=50;" vertex="1" parent="feAVlpUrrlh7gay0loe1-146">
          <mxGeometry x="197.5" y="670" width="100" height="30" as="geometry" />
        </mxCell>
        <mxCell id="Nv8JQg9YMiIBe-wqVKoI-68" value="" style="endArrow=open;endFill=1;endSize=12;html=1;entryX=0.401;entryY=-0.038;entryDx=0;entryDy=0;entryPerimeter=0;" edge="1" parent="feAVlpUrrlh7gay0loe1-146" target="Nv8JQg9YMiIBe-wqVKoI-28">
          <mxGeometry width="160" relative="1" as="geometry">
            <mxPoint x="430" y="413" as="sourcePoint" />
            <mxPoint x="229" y="940" as="targetPoint" />
            <Array as="points">
              <mxPoint x="430" y="440" />
            </Array>
          </mxGeometry>
        </mxCell>
        <mxCell id="Nv8JQg9YMiIBe-wqVKoI-70" value="" style="endArrow=open;endFill=1;endSize=12;html=1;" edge="1" parent="feAVlpUrrlh7gay0loe1-146">
          <mxGeometry width="160" relative="1" as="geometry">
            <mxPoint x="240" y="412" as="sourcePoint" />
            <mxPoint x="240" y="670" as="targetPoint" />
            <Array as="points">
              <mxPoint x="240" y="439" />
              <mxPoint x="240" y="630" />
            </Array>
          </mxGeometry>
        </mxCell>
        <mxCell id="Nv8JQg9YMiIBe-wqVKoI-73" value="" style="endArrow=open;endFill=1;endSize=12;html=1;entryX=0.75;entryY=0;entryDx=0;entryDy=0;exitX=0.205;exitY=0.657;exitDx=0;exitDy=0;exitPerimeter=0;" edge="1" parent="feAVlpUrrlh7gay0loe1-146" source="Nv8JQg9YMiIBe-wqVKoI-6" target="Nv8JQg9YMiIBe-wqVKoI-26">
          <mxGeometry width="160" relative="1" as="geometry">
            <mxPoint x="180" y="412.07" as="sourcePoint" />
            <mxPoint x="180" y="460" as="targetPoint" />
            <Array as="points" />
          </mxGeometry>
        </mxCell>
        <mxCell id="Nv8JQg9YMiIBe-wqVKoI-75" style="edgeStyle=orthogonalEdgeStyle;rounded=0;orthogonalLoop=1;jettySize=auto;html=1;exitX=0.5;exitY=1;exitDx=0;exitDy=0;entryX=0.973;entryY=0.371;entryDx=0;entryDy=0;entryPerimeter=0;" edge="1" parent="feAVlpUrrlh7gay0loe1-146" source="Nv8JQg9YMiIBe-wqVKoI-28" target="Nv8JQg9YMiIBe-wqVKoI-62">
          <mxGeometry relative="1" as="geometry">
            <mxPoint x="440.14285714285734" y="890" as="targetPoint" />
          </mxGeometry>
        </mxCell>
        <mxCell id="Nv8JQg9YMiIBe-wqVKoI-76" style="edgeStyle=orthogonalEdgeStyle;rounded=0;orthogonalLoop=1;jettySize=auto;html=1;exitX=0;exitY=0.5;exitDx=0;exitDy=0;" edge="1" parent="1" source="Nv8JQg9YMiIBe-wqVKoI-29" target="Nv8JQg9YMiIBe-wqVKoI-16">
          <mxGeometry relative="1" as="geometry" />
        </mxCell>
        <mxCell id="Nv8JQg9YMiIBe-wqVKoI-77" style="edgeStyle=orthogonalEdgeStyle;rounded=0;orthogonalLoop=1;jettySize=auto;html=1;" edge="1" parent="1" source="Nv8JQg9YMiIBe-wqVKoI-14" target="Nv8JQg9YMiIBe-wqVKoI-62">
          <mxGeometry relative="1" as="geometry" />
        </mxCell>
        <mxCell id="Nv8JQg9YMiIBe-wqVKoI-78" style="edgeStyle=orthogonalEdgeStyle;rounded=0;orthogonalLoop=1;jettySize=auto;html=1;entryX=0.373;entryY=-0.038;entryDx=0;entryDy=0;entryPerimeter=0;" edge="1" parent="1" source="Nv8JQg9YMiIBe-wqVKoI-17" target="Nv8JQg9YMiIBe-wqVKoI-29">
          <mxGeometry relative="1" as="geometry" />
        </mxCell>
      </root>
    </mxGraphModel>
  </diagram>
</mxfile>
